<svg xmlns="http://www.w3.org/2000/svg" xmlns:xlink="http://www.w3.org/1999/xlink" version="1.1" width="1000" height="1000" viewBox="0 0 1000 1000" xml:space="preserve">
<desc>Created with Fabric.js 3.5.0</desc>
<defs>
</defs>
<rect x="0" y="0" width="100%" height="100%" fill="#ffffff"/>
<g transform="matrix(0.9965 0 0 0.9965 500.0019 499.1012)" id="3759">
<g style="">
		<g transform="matrix(0.8306 0 0 0.8306 -0.002 -0.0023)" id="Layer_1">
<path style="stroke: none; stroke-width: 1; stroke-dasharray: none; stroke-linecap: butt; stroke-dashoffset: 0; stroke-linejoin: miter; stroke-miterlimit: 4; is-custom-font: none; font-file-url: none; fill: rgb(163,0,0); fill-rule: nonzero; opacity: 1;" transform=" translate(-528.5, -603.5)" d="M 1.000004 898 C 1 701.979126 1 505.958221 1.367103 309.555115 C 2.411014 308.275757 3.336947 307.474396 3.724757 306.466034 C 6.534421 299.160461 11.017267 293.177277 17.735823 289.11969 C 26.894821 283.588257 36.149395 278.212158 45.424904 272.877075 C 74.989456 255.872147 104.608284 238.961502 134.157257 221.929596 C 161.272705 206.300339 188.306931 190.530258 215.410278 174.879913 C 237.954529 161.862122 260.567902 148.964096 283.112946 135.947662 C 310.217072 120.299072 337.25769 104.540581 364.369537 88.905434 C 389.346863 74.501251 414.355896 60.151581 439.399048 45.862179 C 464.7117 31.418989 490.08606 17.083908 515.404785 2.651254 C 515.791321 2.430924 515.809753 1.564769 516 0.999996 C 523.687561 1 531.375183 1 539.44928 1.370194 C 554.585999 10.037542 569.391296 18.238474 584.072449 26.656055 C 602.657959 37.312279 621.116577 48.189518 639.677734 58.888504 C 658.096436 69.505363 676.60022 79.974525 695.01947 90.590271 C 715.721008 102.5214 736.34552 114.586166 757.048767 126.514412 C 775.61438 137.211075 794.276123 147.740921 812.83252 158.453339 C 837.520264 172.705353 862.121582 187.107162 886.807556 201.362305 C 909.357666 214.384094 931.99408 227.25647 954.550659 240.267181 C 980.248047 255.089508 1005.78656 270.191772 1031.625122 284.762787 C 1042.150269 290.698151 1050.239258 298.248322 1053.978394 309.97345 C 1054.236206 310.781647 1055.307129 311.330536 1056 312 C 1056 506.020905 1056 700.041809 1055.623535 894.45343 C 1054.789673 895.653625 1054.224243 896.421204 1053.891235 897.278992 C 1050.794312 905.258057 1046.767456 912.593628 1039.2229 917.242493 C 1031.652954 921.906982 1024.00415 926.44928 1016.300171 930.889343 C 997.882874 941.503967 979.387573 951.983276 960.97052 962.598511 C 940.271545 974.529114 919.64801 986.590637 898.946777 998.517212 C 880.382874 1009.212402 861.721985 1019.739197 843.169495 1030.453857 C 820.769836 1043.390503 798.474182 1056.507324 776.068787 1069.43396 C 755.227722 1081.458008 734.264954 1093.270996 713.421753 1105.291382 C 683.874207 1122.331909 654.390991 1139.484009 624.872803 1156.575439 C 607.904541 1166.400391 590.999146 1176.337402 573.918091 1185.962524 C 562.474976 1192.410522 550.769836 1198.393311 539.209961 1204.63623 C 538.965698 1204.768066 539.062378 1205.53125 539 1206 C 531.979065 1206 524.958191 1206 517.546509 1205.623535 C 513.538147 1203.439087 509.82547 1201.797241 506.31955 1199.793701 C 492.590607 1191.948364 478.943237 1183.960327 465.235016 1176.078491 C 446.815704 1165.488159 428.343536 1154.989624 409.939453 1144.372925 C 391.393219 1133.674194 372.911926 1122.863159 354.384644 1112.13147 C 337.998169 1102.639893 321.589294 1093.187012 305.187073 1083.722534 C 289.207794 1074.502319 273.236115 1065.268921 257.239807 1056.078247 C 238.817154 1045.49353 220.34726 1034.990967 201.942032 1024.376099 C 183.539139 1013.762573 165.217773 1003.00769 146.810913 992.401184 C 128.257446 981.710205 109.614929 971.173767 91.062431 960.48114 C 70.374329 948.557739 49.821747 936.397095 29.055748 924.611816 C 18.310802 918.513733 8.066811 912.15448 3.3376 899.874023 C 3.027459 899.068665 1.800498 898.616455 1.000004 898 M 420.998932 418.5 C 420.998932 503.328064 421.019623 588.156128 420.949646 672.984131 C 420.945282 678.289429 420.582764 683.6474 419.789886 688.890503 C 415.025177 720.397827 399.178619 745.30957 373.790283 764.138977 C 338.085175 790.620117 296.71933 801.554321 253.469055 806.941528 C 246.962753 807.751892 245.05011 809.327393 245.047699 815.972351 C 245.034195 853.303467 245.041077 890.634583 245.042053 927.965698 C 245.042068 928.798889 244.980255 929.640442 245.073746 930.463806 C 245.569199 934.827026 248.643417 937.24585 253.015686 936.723755 C 258.123138 936.114014 263.247192 935.60791 268.330292 934.834961 C 305.756683 929.144409 342.305206 920.07135 377.458771 905.86554 C 416.10907 890.246704 451.646545 869.584045 481.693756 840.283569 C 529.285889 793.874146 552.00293 736.519714 552.50177 670.909302 C 553.393677 553.589783 552.755676 436.258575 552.746033 318.932251 C 552.745544 312.454987 550.639038 310.275482 544.037598 310.268066 C 505.87323 310.225128 467.708771 310.220734 429.544434 310.272614 C 422.962036 310.281555 421.003693 312.422485 421.002258 319.00589 C 420.995026 351.83725 420.998932 384.66864 420.998932 418.5 M 771.421021 421.926575 C 785.163086 408.197113 794.025208 391.491882 798.818054 372.991882 C 803.252075 355.876923 805.934448 338.307434 809.36554 320.933655 C 810.903748 313.144684 808.70636 310.265625 800.97937 310.261993 C 737.487915 310.232269 673.996399 310.232788 610.504944 310.263611 C 603.7323 310.266907 602.000366 312.133148 601.999695 318.893921 C 601.995728 356.888824 601.997131 394.883728 601.998474 432.878632 C 601.998779 440.321136 603.455627 441.751678 611.094849 441.752716 C 646.590088 441.757568 682.085754 441.6492 717.580383 441.795807 C 737.805359 441.879364 755.832886 436.325317 771.421021 421.926575 M 372.055969 690.518982 C 373.397675 684.059814 375.537506 677.646851 375.91449 671.131836 C 376.692108 657.693298 376.614441 644.200989 376.717407 630.729492 C 376.768921 623.983093 374.566315 622.043274 367.592865 622.042603 C 329.951721 622.038818 292.310577 622.040222 254.669418 622.041199 C 246.703751 622.041443 245.043884 623.678162 245.042892 631.586121 C 245.038376 667.728271 245.040878 703.870483 245.040878 740.012634 C 245.040878 754.247253 245.140915 754.592957 259.077637 752.906738 C 279.657532 750.416809 300.023651 746.721863 319.398071 738.983398 C 342.809021 729.632507 362.348511 715.923035 372.055969 690.518982 M 719.011047 564.491089 C 719.690552 562.631104 720.368225 560.770447 721.049927 558.911255 C 728.232849 539.321838 730.712769 518.733398 733.857666 498.293121 C 734.570801 493.658661 731.899963 491.016571 726.761353 491.013336 C 687.459473 490.988556 648.157593 490.987946 608.855713 491.014771 C 603.934204 491.018127 602.012024 492.997284 602.009766 497.950104 C 601.99176 536.918945 601.993103 575.887756 602.007568 614.856567 C 602.009521 620.128296 603.856323 621.975769 609.161987 621.98938 C 621.984985 622.0224 634.812683 622.213867 647.630066 621.944153 C 662.966125 621.621399 676.904846 616.886047 689.143555 607.499634 C 703.45343 596.524719 712.068176 581.52948 719.011047 564.491089 z" stroke-linecap="round"/>
</g>
		<g transform="matrix(0.8306 0 0 0.8306 -107.5646 16.6228)" id="Layer_1">
<path style="stroke: none; stroke-width: 1; stroke-dasharray: none; stroke-linecap: butt; stroke-dashoffset: 0; stroke-linejoin: miter; stroke-miterlimit: 4; is-custom-font: none; font-file-url: none; fill: rgb(255,254,254); fill-rule: nonzero; opacity: 1;" transform=" translate(-398.999, -623.5144)" d="M 420.998932 418 C 420.998932 384.66864 420.995026 351.83725 421.002258 319.00589 C 421.003693 312.422485 422.962036 310.281555 429.544434 310.272614 C 467.708771 310.220734 505.87323 310.225128 544.037598 310.268066 C 550.639038 310.275482 552.745544 312.454987 552.746033 318.932251 C 552.755676 436.258575 553.393677 553.589783 552.50177 670.909302 C 552.00293 736.519714 529.285889 793.874146 481.693756 840.283569 C 451.646545 869.584045 416.10907 890.246704 377.458771 905.86554 C 342.305206 920.07135 305.756683 929.144409 268.330292 934.834961 C 263.247192 935.60791 258.123138 936.114014 253.015686 936.723755 C 248.643417 937.24585 245.569199 934.827026 245.073746 930.463806 C 244.980255 929.640442 245.042068 928.798889 245.042053 927.965698 C 245.041077 890.634583 245.034195 853.303467 245.047699 815.972351 C 245.05011 809.327393 246.962753 807.751892 253.469055 806.941528 C 296.71933 801.554321 338.085175 790.620117 373.790283 764.138977 C 399.178619 745.30957 415.025177 720.397827 419.789886 688.890503 C 420.582764 683.6474 420.945282 678.289429 420.949646 672.984131 C 421.019623 588.156128 420.998932 503.328064 420.998932 418 z" stroke-linecap="round"/>
</g>
		<g transform="matrix(0.8306 0 0 0.8306 147.3583 -188.9473)" id="Layer_1">
<path style="stroke: none; stroke-width: 1; stroke-dasharray: none; stroke-linecap: butt; stroke-dashoffset: 0; stroke-linejoin: miter; stroke-miterlimit: 4; is-custom-font: none; font-file-url: none; fill: rgb(255,254,254); fill-rule: nonzero; opacity: 1;" transform=" translate(-705.9115, -376.0184)" d="M 771.156616 422.166016 C 755.832886 436.325317 737.805359 441.879364 717.580383 441.795807 C 682.085754 441.6492 646.590088 441.757568 611.094849 441.752716 C 603.455627 441.751678 601.998779 440.321136 601.998474 432.878632 C 601.997131 394.883728 601.995728 356.888824 601.999695 318.893921 C 602.000366 312.133148 603.7323 310.266907 610.504944 310.263611 C 673.996399 310.232788 737.487915 310.232269 800.97937 310.261993 C 808.70636 310.265625 810.903748 313.144684 809.36554 320.933655 C 805.934448 338.307434 803.252075 355.876923 798.818054 372.991882 C 794.025208 391.491882 785.163086 408.197113 771.156616 422.166016 z" stroke-linecap="round"/>
</g>
		<g transform="matrix(0.8306 0 0 0.8306 -180.7569 70.0388)" id="Layer_1">
<path style="stroke: none; stroke-width: 1; stroke-dasharray: none; stroke-linecap: butt; stroke-dashoffset: 0; stroke-linejoin: miter; stroke-miterlimit: 4; is-custom-font: none; font-file-url: none; fill: rgb(255,254,254); fill-rule: nonzero; opacity: 1;" transform=" translate(-310.8792, -687.823)" d="M 371.994995 690.907715 C 362.348511 715.923035 342.809021 729.632507 319.398071 738.983398 C 300.023651 746.721863 279.657532 750.416809 259.077637 752.906738 C 245.140915 754.592957 245.040878 754.247253 245.040878 740.012634 C 245.040878 703.870483 245.038376 667.728271 245.042892 631.586121 C 245.043884 623.678162 246.703751 622.041443 254.669418 622.041199 C 292.310577 622.040222 329.951721 622.038818 367.592865 622.042603 C 374.566315 622.043274 376.768921 623.983093 376.717407 630.729492 C 376.614441 644.200989 376.692108 657.693298 375.91449 671.131836 C 375.537506 677.646851 373.397675 684.059814 371.994995 690.907715 z" stroke-linecap="round"/>
</g>
		<g transform="matrix(0.8306 0 0 0.8306 115.8557 -39.005)" id="Layer_1">
<path style="stroke: none; stroke-width: 1; stroke-dasharray: none; stroke-linecap: butt; stroke-dashoffset: 0; stroke-linejoin: miter; stroke-miterlimit: 4; is-custom-font: none; font-file-url: none; fill: rgb(255,255,255); fill-rule: nonzero; opacity: 1;" transform=" translate(-667.984, -556.5404)" d="M 718.930054 564.871704 C 712.068176 581.52948 703.45343 596.524719 689.143555 607.499634 C 676.904846 616.886047 662.966125 621.621399 647.630066 621.944153 C 634.812683 622.213867 621.984985 622.0224 609.161987 621.98938 C 603.856323 621.975769 602.009521 620.128296 602.007568 614.856567 C 601.993103 575.887756 601.99176 536.918945 602.009766 497.950104 C 602.012024 492.997284 603.934204 491.018127 608.855713 491.014771 C 648.157593 490.987946 687.459473 490.988556 726.761353 491.013336 C 731.899963 491.016571 734.570801 493.658661 733.857666 498.293121 C 730.712769 518.733398 728.232849 539.321838 721.049927 558.911255 C 720.368225 560.770447 719.690552 562.631104 718.930054 564.871704 z" stroke-linecap="round"/>
</g>
</g>
</g>
</svg>